<svg width="48" height="48" viewBox="0 0 48 48" fill="none" xmlns="http://www.w3.org/2000/svg">
<path d="M8 1H40C43.9 1 47 4.1 47 8V40C47 43.9 43.9 47 40 47H8C4.1 47 1 43.9 1 40V8C1 4.1 4.1 1 8 1Z" fill="#7BCEF2"/>
<path d="M40 48H8C3.6 48 0 44.4 0 40V8C0 3.6 3.6 0 8 0H40C44.4 0 48 3.6 48 8V40C48 44.4 44.4 48 40 48ZM8 2C4.7 2 2 4.7 2 8V40C2 43.3 4.7 46 8 46H40C43.3 46 46 43.3 46 40V8C46 4.7 43.3 2 40 2H8Z" fill="#7BCEF2"/>
<path d="M24 37.8C31.6215 37.8 37.7999 31.6215 37.7999 24C37.7999 16.3785 31.6215 10.2 24 10.2C16.3784 10.2 10.2 16.3785 10.2 24C10.2 31.6215 16.3784 37.8 24 37.8Z" fill="#2A5162"/>
<path d="M24 38.8C15.8 38.8 9.19995 32.2 9.19995 24C9.19995 15.8 15.8 9.20001 24 9.20001C32.2 9.20001 38.7999 15.8 38.7999 24C38.7999 32.2 32.2 38.8 24 38.8ZM24 11.2C16.9 11.2 11.2 16.9 11.2 24C11.2 31.1 16.9 36.8 24 36.8C31.1 36.8 36.7999 31.1 36.7999 24C36.7999 16.9 31.1 11.2 24 11.2Z" fill="#7BCEF2"/>
<path d="M24 31.8C28.3 31.8 31.7999 28.3 31.7999 24C31.7999 19.7 28.3 16.2 24 16.2C19.7 16.2 16.2 19.7 16.2 24C16.2 28.3 19.7 31.8 24 31.8Z" fill="#2A5162"/>
<path d="M24 32.8C19.2 32.8 15.2 28.9 15.2 24C15.2 19.2 19.1 15.2 24 15.2C28.9 15.2 32.7999 19.1 32.7999 24C32.7999 28.8 28.8 32.8 24 32.8ZM24 17.2C20.3 17.2 17.2 20.2 17.2 24C17.2 27.7 20.2 30.8 24 30.8C27.7 30.8 30.8 27.8 30.8 24C30.8 20.3 27.7 17.2 24 17.2Z" fill="#7BCEF2"/>
<path d="M26.9 23.8C26.9 25.3 25.7 26.5 24.2 26.5C22.7 26.5 21.5 25.3 21.5 23.8C21.5 22.3 22.7 21.1 24.2 21.1C25.7 21.1 26.9 22.4 26.9 23.8Z" fill="#7BCEF2"/>
<path d="M12.2801 10.5431L10.8655 11.9569L32.3552 33.4588L33.7698 32.045L12.2801 10.5431Z" fill="#7BCEF2"/>
<path d="M16.7 16.6L16.2 11.1L11.8 7.09998L11.9 11.8L7.30005 11.7L11.2 16L16.7 16.6Z" fill="#2A5162"/>
<path d="M17.8 17.7L10.7 17.1L5 10.7L10.9 10.8L10.7 4.79999L17.1 10.6L17.8 17.7ZM11.7 15.2L15.6 15.5L15.2 11.6L12.8 9.39999L12.9 12.8L9.6 12.7L11.7 15.2Z" fill="#7BCEF2"/>
<path d="M31.3 31.4L31.8 36.9L36.2001 40.9L36.1 36.2L40.7001 36.3L36.8 32L31.3 31.4Z" fill="#2A5162"/>
<path d="M37.2999 43.1L30.9 37.3L30.2 30.3L37.2999 30.9L43 37.3L37.0999 37.2L37.2999 43.1ZM32.7999 36.3L35.2 38.5L35.0999 35.1L38.4 35.2L36.2999 32.9L32.4 32.6L32.7999 36.3Z" fill="#7BCEF2"/>
<path d="M36.1508 10.5301L14.658 32.0289L16.0724 33.4429L37.5652 11.9441L36.1508 10.5301Z" fill="#7BCEF2"/>
<path d="M31.4 16.6L31.9 11.1L36.3 7.09998L36.2 11.8L40.8 11.7L36.9 16L31.4 16.6Z" fill="#2A5162"/>
<path d="M30.3 17.7L31 10.7L37.4001 4.90002L37.2001 10.9L43.1 10.8L37.4001 17.2L30.3 17.7ZM32.9001 11.7L32.5 15.6L36.4001 15.3L38.5 13L35.2001 13.1L35.3 9.70002L32.9001 11.7Z" fill="#7BCEF2"/>
<path d="M16.7 31.4L16.2 36.9L11.8 40.9L11.9 36.2L7.30005 36.3L11.2 32L16.7 31.4Z" fill="#2A5162"/>
<path d="M10.7 43.1L10.9 37.1L5 37.3L10.7 30.9L17.8 30.3L17.1 37.3L10.7 43.1ZM12.9 35.1L12.8 38.5L15.2 36.3L15.6 32.4L11.7 32.7L9.6 35L12.9 35.1Z" fill="#7BCEF2"/>
</svg>
